<svg xmlns="http://www.w3.org/2000/svg" xmlns:xlink="http://www.w3.org/1999/xlink" width="1027.989" height="362.129" viewBox="0 0 1027.989 362.129">
  <defs>
    <clipPath id="clip-path">
      <rect id="Rectángulo_50" data-name="Rectángulo 50" width="1027.989" height="362.129" transform="translate(412.208 56)" fill="none"/>
    </clipPath>
  </defs>
  <g id="Grupo_35" data-name="Grupo 35" transform="translate(-412.208 -56)" opacity="0.5">
    <g id="Grupo_34" data-name="Grupo 34" clip-path="url(#clip-path)">
      <g id="Grupo_33" data-name="Grupo 33">
        <path id="Trazado_109" data-name="Trazado 109" d="M470.459,410.111V408.8l-1.131.653Z" fill="#771528"/>
        <path id="Trazado_110" data-name="Trazado 110" d="M470.459,383.462v-1.307l-1.131.653Z" fill="#771528"/>
        <path id="Trazado_111" data-name="Trazado 111" d="M470.459,356.813v-1.306l-1.131.653Z" fill="#771528"/>
        <path id="Trazado_112" data-name="Trazado 112" d="M470.459,330.163v-1.306l-1.131.653Z" fill="#771528"/>
        <path id="Trazado_113" data-name="Trazado 113" d="M470.459,303.514v-1.307l-1.131.653Z" fill="#771528"/>
        <path id="Trazado_114" data-name="Trazado 114" d="M470.459,276.865v-1.307l-1.131.653Z" fill="#771528"/>
        <path id="Trazado_115" data-name="Trazado 115" d="M470.459,250.215v-1.306l-1.131.653Z" fill="#771528"/>
        <path id="Trazado_116" data-name="Trazado 116" d="M470.459,223.566V222.26l-1.131.653Z" fill="#771528"/>
        <path id="Trazado_117" data-name="Trazado 117" d="M470.459,196.917v-1.306l-1.131.653Z" fill="#771528"/>
        <path id="Trazado_118" data-name="Trazado 118" d="M470.459,170.268v-1.306l-1.131.653Z" fill="#771528"/>
        <path id="Trazado_119" data-name="Trazado 119" d="M470.459,143.619v-1.307l-1.131.653Z" fill="#771528"/>
        <path id="Trazado_120" data-name="Trazado 120" d="M470.459,116.969v-1.307l-1.131.653Z" fill="#771528"/>
        <path id="Trazado_121" data-name="Trazado 121" d="M470.459,90.32V89.013l-1.131.653Z" fill="#771528"/>
        <path id="Trazado_122" data-name="Trazado 122" d="M470.459,63.671V62.364l-1.131.653Z" fill="#771528"/>
        <path id="Trazado_123" data-name="Trazado 123" d="M497.674,424.089v-2.613l-2.263,1.307Z" fill="#771528"/>
        <path id="Trazado_124" data-name="Trazado 124" d="M497.674,397.44v-2.613l-2.263,1.307Z" fill="#771528"/>
        <path id="Trazado_125" data-name="Trazado 125" d="M497.674,370.79v-2.612l-2.263,1.306Z" fill="#771528"/>
        <path id="Trazado_126" data-name="Trazado 126" d="M497.674,344.141v-2.613l-2.263,1.306Z" fill="#771528"/>
        <path id="Trazado_127" data-name="Trazado 127" d="M497.674,317.492v-2.612l-2.263,1.306Z" fill="#771528"/>
        <path id="Trazado_128" data-name="Trazado 128" d="M497.674,290.842V288.23l-2.263,1.306Z" fill="#771528"/>
        <path id="Trazado_129" data-name="Trazado 129" d="M497.674,264.193v-2.612l-2.263,1.307Z" fill="#771528"/>
        <path id="Trazado_130" data-name="Trazado 130" d="M497.674,237.544v-2.613l-2.263,1.307Z" fill="#771528"/>
        <path id="Trazado_131" data-name="Trazado 131" d="M497.674,210.895v-2.612l-2.263,1.306Z" fill="#771528"/>
        <path id="Trazado_132" data-name="Trazado 132" d="M497.674,184.246v-2.613l-2.263,1.306Z" fill="#771528"/>
        <path id="Trazado_133" data-name="Trazado 133" d="M497.674,157.6v-2.613l-2.263,1.307Z" fill="#771528"/>
        <path id="Trazado_134" data-name="Trazado 134" d="M497.674,130.947v-2.613l-2.263,1.307Z" fill="#771528"/>
        <path id="Trazado_135" data-name="Trazado 135" d="M497.674,104.3v-2.613l-2.263,1.306Z" fill="#771528"/>
        <path id="Trazado_136" data-name="Trazado 136" d="M497.674,77.649V75.036l-2.263,1.306Z" fill="#771528"/>
        <path id="Trazado_137" data-name="Trazado 137" d="M497.674,51V48.386l-2.263,1.307Z" fill="#771528"/>
        <path id="Trazado_138" data-name="Trazado 138" d="M524.888,411.418V407.5l-3.394,1.959Z" fill="#771528"/>
        <path id="Trazado_139" data-name="Trazado 139" d="M524.888,384.768v-3.919l-3.394,1.959Z" fill="#771528"/>
        <path id="Trazado_140" data-name="Trazado 140" d="M524.888,358.119V354.2l-3.394,1.96Z" fill="#771528"/>
        <path id="Trazado_141" data-name="Trazado 141" d="M524.888,331.47v-3.919l-3.394,1.959Z" fill="#771528"/>
        <path id="Trazado_142" data-name="Trazado 142" d="M524.888,304.82V300.9l-3.394,1.959Z" fill="#771528"/>
        <path id="Trazado_143" data-name="Trazado 143" d="M524.888,278.171v-3.919l-3.394,1.959Z" fill="#771528"/>
        <path id="Trazado_144" data-name="Trazado 144" d="M524.888,251.522V247.6l-3.394,1.959Z" fill="#771528"/>
        <path id="Trazado_145" data-name="Trazado 145" d="M524.888,224.873v-3.919l-3.394,1.959Z" fill="#771528"/>
        <path id="Trazado_146" data-name="Trazado 146" d="M524.888,198.223V194.3l-3.394,1.959Z" fill="#771528"/>
        <path id="Trazado_147" data-name="Trazado 147" d="M524.888,171.574v-3.919l-3.394,1.959Z" fill="#771528"/>
        <path id="Trazado_148" data-name="Trazado 148" d="M524.888,144.925v-3.919l-3.394,1.959Z" fill="#771528"/>
        <path id="Trazado_149" data-name="Trazado 149" d="M524.888,118.275v-3.919l-3.394,1.959Z" fill="#771528"/>
        <path id="Trazado_150" data-name="Trazado 150" d="M524.888,91.627V87.707l-3.394,1.959Z" fill="#771528"/>
        <path id="Trazado_151" data-name="Trazado 151" d="M524.888,64.977V61.058l-3.394,1.959Z" fill="#771528"/>
        <path id="Trazado_152" data-name="Trazado 152" d="M552.33,425.657v-5.748l-4.978,2.874Z" fill="#771528"/>
        <path id="Trazado_153" data-name="Trazado 153" d="M552.33,399.007v-5.748l-4.978,2.874Z" fill="#771528"/>
        <path id="Trazado_154" data-name="Trazado 154" d="M552.33,372.358V366.61l-4.978,2.874Z" fill="#771528"/>
        <path id="Trazado_155" data-name="Trazado 155" d="M552.33,345.709v-5.748l-4.978,2.874Z" fill="#771528"/>
        <path id="Trazado_156" data-name="Trazado 156" d="M552.33,319.06v-5.748l-4.978,2.874Z" fill="#771528"/>
        <path id="Trazado_157" data-name="Trazado 157" d="M552.33,292.41v-5.748l-4.978,2.874Z" fill="#771528"/>
        <path id="Trazado_158" data-name="Trazado 158" d="M552.33,265.761v-5.748l-4.978,2.874Z" fill="#771528"/>
        <path id="Trazado_159" data-name="Trazado 159" d="M552.33,239.111v-5.748l-4.978,2.874Z" fill="#771528"/>
        <path id="Trazado_160" data-name="Trazado 160" d="M552.33,212.463v-5.748l-4.978,2.874Z" fill="#771528"/>
        <path id="Trazado_161" data-name="Trazado 161" d="M552.33,185.813v-5.748l-4.978,2.874Z" fill="#771528"/>
        <path id="Trazado_162" data-name="Trazado 162" d="M552.33,159.164v-5.748l-4.978,2.875Z" fill="#771528"/>
        <path id="Trazado_163" data-name="Trazado 163" d="M552.33,132.514v-5.748l-4.978,2.874Z" fill="#771528"/>
        <path id="Trazado_164" data-name="Trazado 164" d="M552.33,105.865v-5.748l-4.978,2.874Z" fill="#771528"/>
        <path id="Trazado_165" data-name="Trazado 165" d="M552.33,79.216V73.468l-4.978,2.874Z" fill="#771528"/>
        <path id="Trazado_166" data-name="Trazado 166" d="M552.33,52.567V46.819l-4.978,2.874Z" fill="#771528"/>
        <path id="Trazado_167" data-name="Trazado 167" d="M579.771,413.246V405.67l-6.562,3.789Z" fill="#771528"/>
        <path id="Trazado_168" data-name="Trazado 168" d="M579.771,386.6V379.02l-6.562,3.789Z" fill="#771528"/>
        <path id="Trazado_169" data-name="Trazado 169" d="M579.771,359.948v-7.577l-6.562,3.789Z" fill="#771528"/>
        <path id="Trazado_170" data-name="Trazado 170" d="M579.771,333.3v-7.577l-6.562,3.789Z" fill="#771528"/>
        <path id="Trazado_171" data-name="Trazado 171" d="M579.771,306.65v-7.577l-6.562,3.789Z" fill="#771528"/>
        <path id="Trazado_172" data-name="Trazado 172" d="M579.771,280v-7.577l-6.562,3.789Z" fill="#771528"/>
        <path id="Trazado_173" data-name="Trazado 173" d="M579.771,253.351v-7.577l-6.562,3.788Z" fill="#771528"/>
        <path id="Trazado_174" data-name="Trazado 174" d="M579.771,226.7v-7.577l-6.562,3.789Z" fill="#771528"/>
        <path id="Trazado_175" data-name="Trazado 175" d="M579.771,200.052v-7.577l-6.562,3.789Z" fill="#771528"/>
        <path id="Trazado_176" data-name="Trazado 176" d="M579.771,173.4v-7.577l-6.562,3.788Z" fill="#771528"/>
        <path id="Trazado_177" data-name="Trazado 177" d="M579.771,146.754v-7.577l-6.562,3.788Z" fill="#771528"/>
        <path id="Trazado_178" data-name="Trazado 178" d="M579.771,120.1v-7.576l-6.562,3.788Z" fill="#771528"/>
        <path id="Trazado_179" data-name="Trazado 179" d="M579.771,93.455V85.879l-6.562,3.788Z" fill="#771528"/>
        <path id="Trazado_180" data-name="Trazado 180" d="M579.771,66.806V59.229l-6.562,3.788Z" fill="#771528"/>
        <path id="Trazado_181" data-name="Trazado 181" d="M607.325,427.616v-9.667l-8.372,4.834Z" fill="#771528"/>
        <path id="Trazado_182" data-name="Trazado 182" d="M607.325,400.967V391.3l-8.372,4.833Z" fill="#771528"/>
        <path id="Trazado_183" data-name="Trazado 183" d="M607.325,374.317V364.65l-8.372,4.833Z" fill="#771528"/>
        <path id="Trazado_184" data-name="Trazado 184" d="M607.325,347.668V338l-8.372,4.833Z" fill="#771528"/>
        <path id="Trazado_185" data-name="Trazado 185" d="M607.325,321.019v-9.667l-8.372,4.833Z" fill="#771528"/>
        <path id="Trazado_186" data-name="Trazado 186" d="M607.325,294.37V284.7l-8.372,4.833Z" fill="#771528"/>
        <path id="Trazado_187" data-name="Trazado 187" d="M607.325,267.72v-9.667l-8.372,4.833Z" fill="#771528"/>
        <path id="Trazado_188" data-name="Trazado 188" d="M607.325,241.071V231.4l-8.372,4.833Z" fill="#771528"/>
        <path id="Trazado_189" data-name="Trazado 189" d="M607.325,214.422v-9.667l-8.372,4.833Z" fill="#771528"/>
        <path id="Trazado_190" data-name="Trazado 190" d="M607.325,187.773v-9.667l-8.372,4.833Z" fill="#771528"/>
        <path id="Trazado_191" data-name="Trazado 191" d="M607.325,161.124v-9.667l-8.372,4.833Z" fill="#771528"/>
        <path id="Trazado_192" data-name="Trazado 192" d="M607.325,134.474v-9.667l-8.372,4.834Z" fill="#771528"/>
        <path id="Trazado_193" data-name="Trazado 193" d="M607.325,107.825V98.158l-8.372,4.833Z" fill="#771528"/>
        <path id="Trazado_194" data-name="Trazado 194" d="M607.325,81.175V71.508l-8.372,4.833Z" fill="#771528"/>
        <path id="Trazado_195" data-name="Trazado 195" d="M607.325,54.526V44.859l-8.372,4.834Z" fill="#771528"/>
        <path id="Trazado_196" data-name="Trazado 196" d="M634.88,415.337V403.58L624.7,409.458Z" fill="#771528"/>
        <path id="Trazado_197" data-name="Trazado 197" d="M634.88,388.687V376.93L624.7,382.809Z" fill="#771528"/>
        <path id="Trazado_198" data-name="Trazado 198" d="M634.88,362.038V350.281L624.7,356.16Z" fill="#771528"/>
        <path id="Trazado_199" data-name="Trazado 199" d="M634.88,335.389V323.632L624.7,329.51Z" fill="#771528"/>
        <path id="Trazado_200" data-name="Trazado 200" d="M634.88,308.739V296.983L624.7,302.861Z" fill="#771528"/>
        <path id="Trazado_201" data-name="Trazado 201" d="M634.88,282.09V270.333L624.7,276.212Z" fill="#771528"/>
        <path id="Trazado_202" data-name="Trazado 202" d="M634.88,255.441V243.684L624.7,249.562Z" fill="#771528"/>
        <path id="Trazado_203" data-name="Trazado 203" d="M634.88,228.792V217.034L624.7,222.913Z" fill="#771528"/>
        <path id="Trazado_204" data-name="Trazado 204" d="M634.88,202.142V190.385L624.7,196.264Z" fill="#771528"/>
        <path id="Trazado_205" data-name="Trazado 205" d="M634.88,175.493V163.736L624.7,169.614Z" fill="#771528"/>
        <path id="Trazado_206" data-name="Trazado 206" d="M634.88,148.844V137.087L624.7,142.965Z" fill="#771528"/>
        <path id="Trazado_207" data-name="Trazado 207" d="M634.88,122.194V110.437L624.7,116.316Z" fill="#771528"/>
        <path id="Trazado_208" data-name="Trazado 208" d="M634.88,95.545V83.788L624.7,89.667Z" fill="#771528"/>
        <path id="Trazado_209" data-name="Trazado 209" d="M634.88,68.9V57.139L624.7,63.017Z" fill="#771528"/>
        <path id="Trazado_210" data-name="Trazado 210" d="M662.547,429.837V415.728l-12.218,7.055Z" fill="#771528"/>
        <path id="Trazado_211" data-name="Trazado 211" d="M662.547,403.188V389.079l-12.218,7.054Z" fill="#771528"/>
        <path id="Trazado_212" data-name="Trazado 212" d="M662.547,376.538V362.43l-12.218,7.054Z" fill="#771528"/>
        <path id="Trazado_213" data-name="Trazado 213" d="M662.547,349.889V335.781l-12.218,7.054Z" fill="#771528"/>
        <path id="Trazado_214" data-name="Trazado 214" d="M662.547,323.24V309.131l-12.218,7.054Z" fill="#771528"/>
        <path id="Trazado_215" data-name="Trazado 215" d="M662.547,296.59V282.482l-12.218,7.054Z" fill="#771528"/>
        <path id="Trazado_216" data-name="Trazado 216" d="M662.547,269.941V255.833l-12.218,7.055Z" fill="#771528"/>
        <path id="Trazado_217" data-name="Trazado 217" d="M662.547,243.292V229.184l-12.218,7.054Z" fill="#771528"/>
        <path id="Trazado_218" data-name="Trazado 218" d="M662.547,216.643V202.534l-12.218,7.054Z" fill="#771528"/>
        <path id="Trazado_219" data-name="Trazado 219" d="M662.547,189.994V175.885l-12.218,7.054Z" fill="#771528"/>
        <path id="Trazado_220" data-name="Trazado 220" d="M662.547,163.344V149.236l-12.218,7.054Z" fill="#771528"/>
        <path id="Trazado_221" data-name="Trazado 221" d="M662.547,136.695V122.587l-12.218,7.054Z" fill="#771528"/>
        <path id="Trazado_222" data-name="Trazado 222" d="M662.547,110.046V95.937l-12.218,7.054Z" fill="#771528"/>
        <path id="Trazado_223" data-name="Trazado 223" d="M662.547,83.4V69.288l-12.218,7.054Z" fill="#771528"/>
        <path id="Trazado_224" data-name="Trazado 224" d="M662.547,56.747V42.638l-12.218,7.055Z" fill="#771528"/>
        <path id="Trazado_225" data-name="Trazado 225" d="M690.215,417.688v-16.46l-14.254,8.23Z" fill="#771528"/>
        <path id="Trazado_226" data-name="Trazado 226" d="M690.215,391.039v-16.46l-14.254,8.23Z" fill="#771528"/>
        <path id="Trazado_227" data-name="Trazado 227" d="M690.215,364.389V347.93l-14.254,8.23Z" fill="#771528"/>
        <path id="Trazado_228" data-name="Trazado 228" d="M690.215,337.74V321.28l-14.254,8.23Z" fill="#771528"/>
        <path id="Trazado_229" data-name="Trazado 229" d="M690.215,311.091v-16.46l-14.254,8.23Z" fill="#771528"/>
        <path id="Trazado_230" data-name="Trazado 230" d="M690.215,284.441v-16.46l-14.254,8.23Z" fill="#771528"/>
        <path id="Trazado_231" data-name="Trazado 231" d="M690.215,257.792v-16.46l-14.254,8.23Z" fill="#771528"/>
        <path id="Trazado_232" data-name="Trazado 232" d="M690.215,231.143v-16.46l-14.254,8.23Z" fill="#771528"/>
        <path id="Trazado_233" data-name="Trazado 233" d="M690.215,204.494v-16.46l-14.254,8.23Z" fill="#771528"/>
        <path id="Trazado_234" data-name="Trazado 234" d="M690.215,177.844v-16.46l-14.254,8.23Z" fill="#771528"/>
        <path id="Trazado_235" data-name="Trazado 235" d="M690.215,151.195v-16.46l-14.254,8.23Z" fill="#771528"/>
        <path id="Trazado_236" data-name="Trazado 236" d="M690.215,124.546v-16.46l-14.254,8.23Z" fill="#771528"/>
        <path id="Trazado_237" data-name="Trazado 237" d="M690.215,97.9V81.437l-14.254,8.23Z" fill="#771528"/>
        <path id="Trazado_238" data-name="Trazado 238" d="M690.215,71.247V54.788L675.96,63.017Z" fill="#771528"/>
        <path id="Trazado_239" data-name="Trazado 239" d="M718,432.319V413.246l-16.518,9.537Z" fill="#771528"/>
        <path id="Trazado_240" data-name="Trazado 240" d="M718,405.67V386.6l-16.518,9.536Z" fill="#771528"/>
        <path id="Trazado_241" data-name="Trazado 241" d="M718,379.02V359.948l-16.518,9.536Z" fill="#771528"/>
        <path id="Trazado_242" data-name="Trazado 242" d="M718,352.371V333.3l-16.518,9.536Z" fill="#771528"/>
        <path id="Trazado_243" data-name="Trazado 243" d="M718,325.722V306.65l-16.518,9.536Z" fill="#771528"/>
        <path id="Trazado_244" data-name="Trazado 244" d="M718,299.072V280l-16.518,9.536Z" fill="#771528"/>
        <path id="Trazado_245" data-name="Trazado 245" d="M718,272.423V253.351l-16.518,9.537Z" fill="#771528"/>
        <path id="Trazado_246" data-name="Trazado 246" d="M718,245.774V226.7l-16.518,9.536Z" fill="#771528"/>
        <path id="Trazado_247" data-name="Trazado 247" d="M718,219.125V200.052l-16.518,9.536Z" fill="#771528"/>
        <path id="Trazado_248" data-name="Trazado 248" d="M718,192.475V173.4l-16.518,9.536Z" fill="#771528"/>
        <path id="Trazado_249" data-name="Trazado 249" d="M718,165.826V146.754l-16.518,9.537Z" fill="#771528"/>
        <path id="Trazado_250" data-name="Trazado 250" d="M718,139.177V120.1l-16.518,9.537Z" fill="#771528"/>
        <path id="Trazado_251" data-name="Trazado 251" d="M718,112.528V93.455l-16.518,9.536Z" fill="#771528"/>
        <path id="Trazado_252" data-name="Trazado 252" d="M718,85.879V66.806l-16.518,9.536Z" fill="#771528"/>
        <path id="Trazado_253" data-name="Trazado 253" d="M718,59.229V40.156l-16.518,9.537Z" fill="#771528"/>
        <path id="Trazado_254" data-name="Trazado 254" d="M745.776,420.3V398.615L727,409.458Z" fill="#771528"/>
        <path id="Trazado_255" data-name="Trazado 255" d="M745.776,393.651V371.966L727,382.809Z" fill="#771528"/>
        <path id="Trazado_256" data-name="Trazado 256" d="M745.776,367V345.317L727,356.16Z" fill="#771528"/>
        <path id="Trazado_257" data-name="Trazado 257" d="M745.776,340.353V318.668L727,329.51Z" fill="#771528"/>
        <path id="Trazado_258" data-name="Trazado 258" d="M745.776,313.7V292.018L727,302.861Z" fill="#771528"/>
        <path id="Trazado_259" data-name="Trazado 259" d="M745.776,287.054V265.369L727,276.212Z" fill="#771528"/>
        <path id="Trazado_260" data-name="Trazado 260" d="M745.776,260.4V238.72L727,249.562Z" fill="#771528"/>
        <path id="Trazado_261" data-name="Trazado 261" d="M745.776,233.756V212.07L727,222.913Z" fill="#771528"/>
        <path id="Trazado_262" data-name="Trazado 262" d="M745.776,207.107V185.421L727,196.264Z" fill="#771528"/>
        <path id="Trazado_263" data-name="Trazado 263" d="M745.776,180.457V158.772L727,169.614Z" fill="#771528"/>
        <path id="Trazado_264" data-name="Trazado 264" d="M745.776,153.808V132.123L727,142.965Z" fill="#771528"/>
        <path id="Trazado_265" data-name="Trazado 265" d="M745.776,127.159V105.473L727,116.316Z" fill="#771528"/>
        <path id="Trazado_266" data-name="Trazado 266" d="M745.776,100.509V78.824L727,89.667Z" fill="#771528"/>
        <path id="Trazado_267" data-name="Trazado 267" d="M745.776,73.86V52.175L727,63.017Z" fill="#771528"/>
        <path id="Trazado_268" data-name="Trazado 268" d="M773.556,434.932v-24.3l-21.042,12.149Z" fill="#771528"/>
        <path id="Trazado_269" data-name="Trazado 269" d="M773.556,408.282v-24.3l-21.042,12.149Z" fill="#771528"/>
        <path id="Trazado_270" data-name="Trazado 270" d="M773.556,381.633v-24.3l-21.042,12.149Z" fill="#771528"/>
        <path id="Trazado_271" data-name="Trazado 271" d="M773.556,354.984v-24.3l-21.042,12.148Z" fill="#771528"/>
        <path id="Trazado_272" data-name="Trazado 272" d="M773.556,328.335v-24.3l-21.042,12.149Z" fill="#771528"/>
        <path id="Trazado_273" data-name="Trazado 273" d="M773.556,301.685v-24.3l-21.042,12.149Z" fill="#771528"/>
        <path id="Trazado_274" data-name="Trazado 274" d="M773.556,275.036v-24.3l-21.042,12.149Z" fill="#771528"/>
        <path id="Trazado_275" data-name="Trazado 275" d="M773.556,248.387v-24.3l-21.042,12.149Z" fill="#771528"/>
        <path id="Trazado_276" data-name="Trazado 276" d="M773.556,221.737v-24.3l-21.042,12.149Z" fill="#771528"/>
        <path id="Trazado_277" data-name="Trazado 277" d="M773.556,195.088v-24.3l-21.042,12.149Z" fill="#771528"/>
        <path id="Trazado_278" data-name="Trazado 278" d="M773.556,168.439v-24.3L752.514,156.29Z" fill="#771528"/>
        <path id="Trazado_279" data-name="Trazado 279" d="M773.556,141.79v-24.3l-21.042,12.149Z" fill="#771528"/>
        <path id="Trazado_280" data-name="Trazado 280" d="M773.556,115.14v-24.3l-21.042,12.149Z" fill="#771528"/>
        <path id="Trazado_281" data-name="Trazado 281" d="M773.556,88.491v-24.3L752.514,76.342Z" fill="#771528"/>
        <path id="Trazado_282" data-name="Trazado 282" d="M773.556,61.841v-24.3L752.514,49.693Z" fill="#771528"/>
        <path id="Trazado_283" data-name="Trazado 283" d="M801,76.342,777.919,89.667,801,102.991l-23.079,13.325L801,129.641l-23.079,13.324L801,156.29l-23.079,13.325L801,182.939l-23.079,13.325L801,209.588l-23.079,13.325L801,236.238l-23.079,13.324L801,262.887l-23.079,13.324L801,289.536l-23.079,13.325L801,316.186,777.919,329.51,801,342.835,777.919,356.16,801,369.484l-23.079,13.325L801,396.133l-23.079,13.325,23.531,13.586V49.431L777.919,63.017Z" fill="#771528"/>
        <path id="Trazado_284" data-name="Trazado 284" d="M1138.212,52.931V29.837l-28.234,16.3V18.34l-28.233,16.3V33.494l-28.233,16.3V22l-28.12,16.235V37.021l-28.12,16.235V25.4L969.152,41.63V40.418l-28.007,16.17V28.661l-28.007,16.17V43.553l-28.006,16.17V31.8l-28.008,16.17V46.688l-27.893,16.1V34.8L803.437,49.693l23.078,13.324L803.437,76.342l23.078,13.325-23.078,13.324,23.079,13.325-23.079,13.325,23.079,13.324L803.437,156.29l23.078,13.324-23.078,13.325,23.078,13.325-23.078,13.324,23.079,13.325-23.079,13.325,23.079,13.324-23.079,13.325,23.078,13.325-23.078,13.324,23.078,13.325-23.078,13.325,23.078,13.324-23.078,13.325,23.079,13.324-23.079,13.325,23.079,13.325-23.079,13.324,23.078,13.325-23.078,13.325,25.794,14.892V409.683l27.893,16.1V424.51l28.008,16.169V412.753l28.006,16.169v-1.277l28.007,16.17V415.888l28.007,16.17v-1.212l28.12,16.235V419.219l28.12,16.235v-1.212l28.12,16.235v-27.8l28.233,16.3v-1.146l28.233,16.3v-27.8l28.234,16.3v-24.51h312.059V52.931Zm-112.82,330.531v-2.519l3.231,1.866-3.231,1.865Zm-56.24,3.4v-9.312l9.114,5.262-9.114,5.262Zm-56.014,3.135V374.346l14.658,8.463-14.658,8.462Zm-56.014,3.135V371.211l20.088,11.6-20.088,11.6Zm0-313.783V78.069l20.088,11.6-20.088,11.6V79.346Zm56.014,3.136V81.2L927.8,89.667l-14.658,8.462V82.482Zm56.014,3.135V84.4l9.114,5.262-9.114,5.261V85.617Zm56.24,3.4V87.8l3.231,1.866-3.231,1.865V89.013Zm0,267.8v-2.519l3.231,1.865-3.231,1.866Zm-56.24,3.4V350.9l9.114,5.261-9.114,5.262Zm-56.014,3.135V347.7l14.658,8.462-14.658,8.463Zm-28.006-11.756V332.8l17.372,10.03-17.372,10.03Zm0-230.7v-1.277l17.372,10.03-17.372,10.03V120.888Zm28.006-11.757v-1.277l14.658,8.462-14.658,8.462V109.131Zm56.014,3.135v-1.212l9.114,5.262-9.114,5.262v-9.312Zm56.24,3.4v-1.212l3.231,1.865-3.231,1.865v-2.518Zm0,214.5v-2.518l3.231,1.865-3.231,1.866Zm-56.24,3.4v-9.312l9.114,5.262-9.114,5.262ZM913.138,336.7V321.047L927.8,329.51l-14.658,8.462Zm0-200.915V134.5l14.658,8.462-14.658,8.463V135.78Zm56.014,3.136V137.7l9.114,5.262-9.114,5.262v-9.311Zm56.24,3.4V141.1l3.231,1.865-3.231,1.866v-2.519Zm0,161.2V301l3.231,1.865-3.231,1.865Zm-56.24,3.4V297.6l9.113,5.262-9.113,5.262Zm-28.007-11.757V282.641l11.942,6.9-11.942,6.895Zm0-117.832v-1.277l11.942,6.894-11.942,6.9V177.322Zm28.007-11.757v-1.212l9.113,5.261-9.113,5.262v-9.311Zm56.24,3.4v-1.213l3.231,1.865-3.231,1.866v-2.518Zm0,107.9v-2.519l3.231,1.866-3.231,1.865Zm-56.24,3.4V270.95l9.114,5.262-9.114,5.262Zm0-88.047V191l9.114,5.262-9.114,5.261v-9.311Zm56.24,3.4V194.4l3.231,1.865-3.231,1.865v-2.518Zm28.3-39.321-.176.1v-.2Zm-28.3,93.925V247.7l3.231,1.865-3.231,1.866Zm-28.12-11.626v-5.915l6.172,3.564-6.172,3.563Zm28.12-16.329v-1.213l3.231,1.866-3.231,1.865V222.26Zm28.12,40.525.176.1-.176.1Zm0-26.649.176.1-.176.1Zm0-26.65.176.1-.176.1Zm.176-26.547-.176.1v-.2Zm-56.416,30.213v-7.127l6.173,3.563Zm-28.12,5.711v-1.212l9.114,5.262-9.114,5.262v-9.312Zm0,26.65V244.3l9.114,5.262-9.114,5.262v-9.311Zm28.12,19.725v-5.915l6.173,3.564-6.173,3.564Zm56.24,24.2.176.1-.176.1ZM997.272,186.5v-7.127l6.172,3.563Zm-56.127,17.468v-1.278l11.943,6.9-11.943,6.9V203.971Zm0,26.65v-1.278l11.942,6.9-11.942,6.894V230.621Zm0,26.649v-1.278l11.943,6.895-11.943,6.9V257.27Zm56.127,34.617v-5.914l6.172,3.563-6.172,3.564Zm56.24,24.2.176.1-.176.1Zm0-186.342v-.2l.176.1Zm-56.24,30.112v-7.128l6.173,3.564Zm-56.127,3.331V149.4l11.942,6.895Zm-28.007-.755v-1.278l14.658,8.463-14.658,8.462V162.43Zm0,26.649V187.8l14.658,8.463-14.658,8.462V189.079Zm0,26.649v-1.277l14.658,8.462-14.658,8.463V215.728Zm0,26.65V241.1l14.658,8.462-14.658,8.463V242.378Zm0,26.648v-1.277l14.658,8.463-14.658,8.462V269.026Zm0,26.65V294.4l14.658,8.462-14.658,8.462V295.676ZM941.145,321.8V309.291l11.942,6.9-11.942,6.895Zm56.127-3.266v-5.915l6.172,3.564-6.172,3.563Zm56.24,24.2.176.1-.176.1Zm0-239.64v-.2l.176.1ZM997.272,133.2v-7.127l6.172,3.564Zm-56.127,3.331V122.746l11.942,6.9Zm-56.013,11V146.26L902.5,156.29l-17.372,10.03V147.537Zm0,26.65v-1.278l17.372,10.03-17.372,10.03V174.187Zm0,26.649v-1.277L902.5,209.588l-17.372,10.031V200.836Zm0,26.649v-1.277l17.372,10.03-17.372,10.03V227.485Zm0,26.649v-1.277l17.372,10.03-17.372,10.03V254.134Zm0,26.65v-1.278l17.372,10.03-17.372,10.03V280.784Zm0,26.649v-1.277l17.372,10.03-17.372,10.029V307.433Zm56.013,41.019V335.94l11.943,6.895-11.943,6.9Zm56.127-3.266v-5.915l6.173,3.564-6.173,3.564Zm56.24,24.2.176.1-.176.1Zm0-292.938v-.2l.176.1Zm-56.24,30.111V99.428l6.173,3.563Zm-56.127,3.331V96.1l11.942,6.895Zm-56.013,3.136V92.962L902.5,102.991ZM857.124,106v-1.278l20.088,11.6-20.088,11.6V106Zm0,26.649v-1.277l20.088,11.6-20.088,11.6V132.645Zm0,26.65v-1.278l20.088,11.6-20.088,11.6V159.295Zm0,26.648v-1.277l20.088,11.6-20.088,11.6V185.943Zm0,26.65v-1.277l20.088,11.6-20.088,11.6V212.593Zm0,26.649v-1.277l20.088,11.6-20.088,11.6V239.242Zm0,26.65v-1.278l20.088,11.6-20.088,11.6V265.892Zm0,26.649v-1.278l20.088,11.6-20.088,11.6V292.541Zm0,26.649v-1.277l20.088,11.6-20.088,11.6V319.19Zm0,26.649v-1.277l20.088,11.6-20.088,11.6V345.839Zm28.008,32.4V359.454l17.372,10.03-17.372,10.03Zm56.013-3.136V362.589l11.942,6.9-11.942,6.895Zm56.127-3.265v-5.915l6.172,3.563-6.172,3.563Zm56.24,24.2.176.1-.176.1ZM1028.623,63.017l-3.231,1.865v-3.73Zm-25.178,13.325-6.173,3.564V72.778Zm-25.18-13.325-9.113,5.262V57.755ZM953.087,76.342l-11.942,6.895V69.447ZM927.8,63.017,913.138,71.48V54.555ZM902.5,76.342l-17.372,10.03V66.312ZM877.212,63.017l-20.088,11.6V51.42Zm-47.981,1.568V63.242l22.69,13.1-22.69,13.1V64.585Zm0,26.649V89.892l22.689,13.1-22.689,13.1V91.234Zm0,26.649v-1.342l22.689,13.1-22.689,13.1V117.883Zm0,26.65V143.19l22.69,13.1-22.69,13.1V144.533Zm0,26.649v-1.343l22.69,13.1-22.69,13.1V171.182Zm0,26.65v-1.344l22.69,13.1-22.69,13.1V197.832Zm0,26.649v-1.343l22.689,13.1-22.689,13.1V224.481Zm0,26.649v-1.343l22.69,13.1-22.69,13.1V251.13Zm0,26.649v-1.343l22.689,13.1-22.689,13.1V277.779Zm0,26.649v-1.342l22.689,13.1-22.689,13.1V304.428Zm0,26.65v-1.343l22.69,13.1-22.69,13.1V331.078Zm0,26.649v-1.343l22.689,13.1-22.689,13.1V357.727Zm0,50.163V383.033l22.69,13.1-22.69,13.1Zm27.893,13.166v-23.2l20.088,11.6Zm28.008-16.17V386.1l17.372,10.03-17.372,10.03Zm28.006,13.035V401l14.658,8.462Zm28.007-16.17V389.238l11.943,6.895-11.943,6.9Zm28.007,12.969V404.2l9.114,5.262Zm28.12-16.236V392.57l6.173,3.563-6.173,3.564Zm28.12,12.839v-3.73l3.231,1.865Z" fill="#771528"/>
      </g>
    </g>
  </g>
</svg>
