<svg xmlns="http://www.w3.org/2000/svg" width="297.809" height="70.586" viewBox="0 0 297.809 70.586">
  <g id="Grupo_266" data-name="Grupo 266" transform="translate(531.546 -5383.462)">
    <g id="Grupo_265" data-name="Grupo 265" transform="translate(-1102)">
      <path id="Trazado_801" data-name="Trazado 801" d="M582.707,5410a5.811,5.811,0,0,0-4.841,2.175,9.565,9.565,0,0,0-1.714,6.064q0,8.09,6.555,8.089a22.16,22.16,0,0,0,6.661-1.274v4.3a19.8,19.8,0,0,1-7.18,1.241q-5.7,0-8.717-3.2t-3.017-9.19a14.078,14.078,0,0,1,1.483-6.609,10.232,10.232,0,0,1,4.258-4.351,13.4,13.4,0,0,1,6.512-1.513,18.716,18.716,0,0,1,7.643,1.7l-1.787,4.169a30.554,30.554,0,0,0-2.947-1.125A9.386,9.386,0,0,0,582.707,5410Z" fill="#444242"/>
      <path id="Trazado_802" data-name="Trazado 802" d="M612.961,5413.623a7.137,7.137,0,0,1-2.635,5.972q-2.633,2.068-7.492,2.068H600.46v8.6h-5.538v-24.187h8.342q4.749,0,7.224,1.894A6.675,6.675,0,0,1,612.961,5413.623Zm-12.5,3.838h1.82a6.428,6.428,0,0,0,3.823-.935,3.167,3.167,0,0,0,1.268-2.721,3.22,3.22,0,0,0-1.063-2.664,5.275,5.275,0,0,0-3.331-.86H600.46Z" fill="#444242"/>
      <path id="Trazado_803" data-name="Trazado 803" d="M628.983,5410a5.814,5.814,0,0,0-4.841,2.175,9.571,9.571,0,0,0-1.714,6.064q0,8.09,6.555,8.089a22.16,22.16,0,0,0,6.661-1.274v4.3a19.8,19.8,0,0,1-7.18,1.241q-5.7,0-8.716-3.2t-3.017-9.19a14.078,14.078,0,0,1,1.482-6.609,10.238,10.238,0,0,1,4.258-4.351,13.4,13.4,0,0,1,6.512-1.513,18.716,18.716,0,0,1,7.643,1.7l-1.787,4.169a30.635,30.635,0,0,0-2.946-1.125A9.4,9.4,0,0,0,628.983,5410Z" fill="#444242"/>
      <path id="Trazado_804" data-name="Trazado 804" d="M639.484,5416.948v-3.623h17.735v3.623Zm0,6.4v-3.623h17.735v3.623Z" fill="#a32330"/>
      <g id="Grupo_194" data-name="Grupo 194">
        <path id="Trazado_805" data-name="Trazado 805" d="M820.109,5430.266h-2.893v-17.239q0-2.149.142-4.069-.375.346-.839.728t-4.25,3.226l-1.571-1.886,6.911-4.947h2.5Z" fill="#444242"/>
        <path id="Trazado_806" data-name="Trazado 806" d="M847.348,5418.139q0,6.27-2.134,9.364a7.4,7.4,0,0,1-6.529,3.094,7.314,7.314,0,0,1-6.413-3.169q-2.2-3.167-2.2-9.289,0-6.319,2.126-9.38a8.259,8.259,0,0,1,12.939.132Q847.346,5412.083,847.348,5418.139Zm-14.271,0q0,5.277,1.34,7.685a4.994,4.994,0,0,0,8.563-.033q1.331-2.442,1.33-7.652t-1.33-7.635a5.012,5.012,0,0,0-8.563-.033Q833.077,5412.863,833.077,5418.139Z" fill="#444242"/>
        <path id="Trazado_807" data-name="Trazado 807" d="M868.263,5418.139q0,6.27-2.134,9.364a7.4,7.4,0,0,1-6.529,3.094,7.314,7.314,0,0,1-6.413-3.169q-2.2-3.167-2.2-9.289,0-6.319,2.126-9.38a8.259,8.259,0,0,1,12.939.132Q868.262,5412.083,868.263,5418.139Zm-14.271,0q0,5.277,1.34,7.685a4.994,4.994,0,0,0,8.563-.033q1.33-2.442,1.33-7.652t-1.33-7.635a5.012,5.012,0,0,0-8.563-.033Q853.993,5412.863,853.992,5418.139Z" fill="#444242"/>
      </g>
      <g id="Grupo_195" data-name="Grupo 195">
        <path id="Trazado_808" data-name="Trazado 808" d="M800.432,5430.266h-6.323l-6.072-9.149-6.073,9.149h-5.929l8.663-12.474-8.109-11.713H782.7l5.627,8.7,5.519-8.7h5.964l-8.2,11.994Z" fill="#a32330"/>
      </g>
      <g id="Grupo_196" data-name="Grupo 196">
        <path id="Trazado_809" data-name="Trazado 809" d="M699.49,5393.123l-1.178,5.625h5.054v2.134h-5.484l-1.5,7.114h-2.446l1.5-7.114h-5.412L688.559,5408h-2.43l1.429-7.114h-4.679v-2.134h5.126l1.216-5.625h-4.949v-2.1h5.342l1.464-7.213h2.482l-1.465,7.213h5.447l1.5-7.213h2.392l-1.5,7.213h4.715v2.1Zm-9.039,5.625h5.412l1.179-5.625H691.63Z" fill="#444242"/>
        <path id="Trazado_810" data-name="Trazado 810" d="M720.368,5385.977a8.874,8.874,0,0,0-6.8,2.655,10.2,10.2,0,0,0-2.492,7.271q0,4.749,2.4,7.337a8.881,8.881,0,0,0,6.849,2.589,25.157,25.157,0,0,0,6.235-.91v2.465a20.586,20.586,0,0,1-6.7.943q-5.77,0-8.9-3.243t-3.133-9.214a13.67,13.67,0,0,1,1.508-6.552,10.394,10.394,0,0,1,4.359-4.334,14.026,14.026,0,0,1,6.706-1.522,17.272,17.272,0,0,1,7.18,1.39l-1.286,2.415A14.764,14.764,0,0,0,720.368,5385.977Z" fill="#444242"/>
        <path id="Trazado_811" data-name="Trazado 811" d="M735.3,5397.938V5408h-3.036v-24.187h7.161q4.8,0,7.1,1.7a5.974,5.974,0,0,1,2.3,5.129q0,4.8-5.251,6.485L750.659,5408h-3.59l-6.323-10.058Zm0-2.416h4.162a7.61,7.61,0,0,0,4.715-1.183,4.242,4.242,0,0,0,1.5-3.548,3.907,3.907,0,0,0-1.527-3.458,8.8,8.8,0,0,0-4.9-1.059H735.3Z" fill="#444242"/>
      </g>
      <g id="Grupo_197" data-name="Grupo 197">
        <path id="Trazado_812" data-name="Trazado 812" d="M695.588,5453.717H692.55v-21.688h-8.269v-2.5h19.575v2.5h-8.268Z" fill="#444242"/>
        <path id="Trazado_813" data-name="Trazado 813" d="M718.966,5431.7a8.872,8.872,0,0,0-6.8,2.655,10.2,10.2,0,0,0-2.492,7.271q0,4.749,2.4,7.337a8.879,8.879,0,0,0,6.849,2.589,25.155,25.155,0,0,0,6.235-.91v2.465a20.6,20.6,0,0,1-6.7.943q-5.77,0-8.905-3.243t-3.133-9.214a13.67,13.67,0,0,1,1.508-6.552,10.4,10.4,0,0,1,4.359-4.334,14.021,14.021,0,0,1,6.706-1.522,17.272,17.272,0,0,1,7.18,1.39l-1.286,2.415A14.763,14.763,0,0,0,718.966,5431.7Z" fill="#444242"/>
        <path id="Trazado_814" data-name="Trazado 814" d="M747.417,5436.578a6.578,6.578,0,0,1-2.705,5.65q-2.707,1.975-7.742,1.977H733.9v9.512h-3.036V5429.53h6.768Q747.419,5429.53,747.417,5436.578Zm-13.52,5.211h2.733q4.036,0,5.84-1.207a4.321,4.321,0,0,0,1.8-3.872,4.052,4.052,0,0,0-1.7-3.573,9.407,9.407,0,0,0-5.288-1.175H733.9Z" fill="#444242"/>
      </g>
      <rect id="Rectángulo_114" data-name="Rectángulo 114" width="101.971" height="2.42" transform="translate(665.642 5416.859)" fill="#444242"/>
    </g>
  </g>
</svg>
